<?xml version="1.0" encoding="UTF-8" standalone="no"?>
<!DOCTYPE svg PUBLIC "-//W3C//DTD SVG 1.1//EN"
 "http://www.w3.org/Graphics/SVG/1.1/DTD/svg11.dtd">
<!-- Generated by graphviz version 2.40.1 (20161225.0304)
 -->
<!-- Title: controllers_diagram Pages: 1 -->
<svg width="995pt" height="895pt"
 viewBox="0.00 0.00 995.00 895.00" xmlns="http://www.w3.org/2000/svg" xmlns:xlink="http://www.w3.org/1999/xlink">
<g id="graph0" class="graph" transform="scale(1 1) rotate(0) translate(4 891)">
<title>controllers_diagram</title>
<polygon fill="transparent" stroke="transparent" points="-4,4 -4,-891 991,-891 991,4 -4,4"/>
<!-- _diagram_info -->
<g id="node1" class="node">
<title>_diagram_info</title>
<text text-anchor="start" x="787" y="-291.6" font-family="Times,serif" font-size="13.00" fill="#000000">Controllers diagram</text>
<text text-anchor="start" x="787" y="-277.6" font-family="Times,serif" font-size="13.00" fill="#000000">Date: Jul 27 2017 &#45; 21:03</text>
<text text-anchor="start" x="787" y="-263.6" font-family="Times,serif" font-size="13.00" fill="#000000">Migration version: 20170309170139</text>
<text text-anchor="start" x="787" y="-249.6" font-family="Times,serif" font-size="13.00" fill="#000000">Generated by RailRoady 1.5.3</text>
<text text-anchor="start" x="787" y="-235.6" font-family="Times,serif" font-size="13.00" fill="#000000">http://railroady.prestonlee.com</text>
</g>
<!-- ApplicantsController -->
<g id="node2" class="node">
<title>ApplicantsController</title>
<path fill="none" stroke="#000000" d="M145,-76.5C145,-76.5 266,-76.5 266,-76.5 272,-76.5 278,-82.5 278,-88.5 278,-88.5 278,-262.5 278,-262.5 278,-268.5 272,-274.5 266,-274.5 266,-274.5 145,-274.5 145,-274.5 139,-274.5 133,-268.5 133,-262.5 133,-262.5 133,-88.5 133,-88.5 133,-82.5 139,-76.5 145,-76.5"/>
<text text-anchor="middle" x="205.5" y="-259.3" font-family="Times,serif" font-size="14.00" fill="#000000">ApplicantsController</text>
<polyline fill="none" stroke="#000000" points="133,-251.5 278,-251.5 "/>
<text text-anchor="start" x="141" y="-236.3" font-family="Times,serif" font-size="14.00" fill="#000000">search_profiles_path</text>
<text text-anchor="start" x="141" y="-221.3" font-family="Times,serif" font-size="14.00" fill="#000000">new_profile_path</text>
<text text-anchor="start" x="141" y="-206.3" font-family="Times,serif" font-size="14.00" fill="#000000">profile_path</text>
<text text-anchor="start" x="141" y="-191.3" font-family="Times,serif" font-size="14.00" fill="#000000">profile_resource_name</text>
<text text-anchor="start" x="141" y="-176.3" font-family="Times,serif" font-size="14.00" fill="#000000">profile_set_flag</text>
<text text-anchor="start" x="141" y="-161.3" font-family="Times,serif" font-size="14.00" fill="#000000">profiles_path</text>
<text text-anchor="start" x="141" y="-146.3" font-family="Times,serif" font-size="14.00" fill="#000000">profiles_scope</text>
<text text-anchor="start" x="141" y="-131.3" font-family="Times,serif" font-size="14.00" fill="#000000">edit_profile_path</text>
<polyline fill="none" stroke="#000000" points="133,-123.5 278,-123.5 "/>
<polyline fill="none" stroke="#000000" points="133,-99.5 278,-99.5 "/>
<text text-anchor="start" x="141" y="-84.3" font-family="Times,serif" font-size="14.00" fill="#000000">_layout</text>
</g>
<!-- ApplicationController -->
<g id="node3" class="node">
<title>ApplicationController</title>
<path fill="none" stroke="#000000" d="M12,-456.5C12,-456.5 128,-456.5 128,-456.5 134,-456.5 140,-462.5 140,-468.5 140,-468.5 140,-538.5 140,-538.5 140,-544.5 134,-550.5 128,-550.5 128,-550.5 12,-550.5 12,-550.5 6,-550.5 0,-544.5 0,-538.5 0,-538.5 0,-468.5 0,-468.5 0,-462.5 6,-456.5 12,-456.5"/>
<text text-anchor="middle" x="70" y="-535.3" font-family="Times,serif" font-size="14.00" fill="#000000">ApplicationController</text>
<polyline fill="none" stroke="#000000" points="0,-527.5 140,-527.5 "/>
<polyline fill="none" stroke="#000000" points="0,-503.5 140,-503.5 "/>
<polyline fill="none" stroke="#000000" points="0,-479.5 140,-479.5 "/>
<text text-anchor="start" x="8" y="-464.3" font-family="Times,serif" font-size="14.00" fill="#000000">_layout</text>
</g>
<!-- CoordinatorsController -->
<g id="node4" class="node">
<title>CoordinatorsController</title>
<path fill="none" stroke="#000000" d="M525,-.5C525,-.5 648,-.5 648,-.5 654,-.5 660,-6.5 660,-12.5 660,-12.5 660,-186.5 660,-186.5 660,-192.5 654,-198.5 648,-198.5 648,-198.5 525,-198.5 525,-198.5 519,-198.5 513,-192.5 513,-186.5 513,-186.5 513,-12.5 513,-12.5 513,-6.5 519,-.5 525,-.5"/>
<text text-anchor="middle" x="586.5" y="-183.3" font-family="Times,serif" font-size="14.00" fill="#000000">CoordinatorsController</text>
<polyline fill="none" stroke="#000000" points="513,-175.5 660,-175.5 "/>
<text text-anchor="start" x="521" y="-160.3" font-family="Times,serif" font-size="14.00" fill="#000000">search_profiles_path</text>
<text text-anchor="start" x="521" y="-145.3" font-family="Times,serif" font-size="14.00" fill="#000000">new_profile_path</text>
<text text-anchor="start" x="521" y="-130.3" font-family="Times,serif" font-size="14.00" fill="#000000">profile_path</text>
<text text-anchor="start" x="521" y="-115.3" font-family="Times,serif" font-size="14.00" fill="#000000">profile_resource_name</text>
<text text-anchor="start" x="521" y="-100.3" font-family="Times,serif" font-size="14.00" fill="#000000">profile_set_flag</text>
<text text-anchor="start" x="521" y="-85.3" font-family="Times,serif" font-size="14.00" fill="#000000">profiles_path</text>
<text text-anchor="start" x="521" y="-70.3" font-family="Times,serif" font-size="14.00" fill="#000000">profiles_scope</text>
<text text-anchor="start" x="521" y="-55.3" font-family="Times,serif" font-size="14.00" fill="#000000">edit_profile_path</text>
<polyline fill="none" stroke="#000000" points="513,-47.5 660,-47.5 "/>
<polyline fill="none" stroke="#000000" points="513,-23.5 660,-23.5 "/>
<text text-anchor="start" x="521" y="-8.3" font-family="Times,serif" font-size="14.00" fill="#000000">_layout</text>
</g>
<!-- MeetingsController -->
<g id="node5" class="node">
<title>MeetingsController</title>
<path fill="none" stroke="#000000" d="M715,-.5C715,-.5 817,-.5 817,-.5 823,-.5 829,-6.5 829,-12.5 829,-12.5 829,-186.5 829,-186.5 829,-192.5 823,-198.5 817,-198.5 817,-198.5 715,-198.5 715,-198.5 709,-198.5 703,-192.5 703,-186.5 703,-186.5 703,-12.5 703,-12.5 703,-6.5 709,-.5 715,-.5"/>
<text text-anchor="middle" x="766" y="-183.3" font-family="Times,serif" font-size="14.00" fill="#000000">MeetingsController</text>
<polyline fill="none" stroke="#000000" points="703,-175.5 829,-175.5 "/>
<text text-anchor="start" x="711" y="-160.3" font-family="Times,serif" font-size="14.00" fill="#000000">index</text>
<text text-anchor="start" x="711" y="-145.3" font-family="Times,serif" font-size="14.00" fill="#000000">destroy</text>
<text text-anchor="start" x="711" y="-130.3" font-family="Times,serif" font-size="14.00" fill="#000000">edit</text>
<text text-anchor="start" x="711" y="-115.3" font-family="Times,serif" font-size="14.00" fill="#000000">create</text>
<text text-anchor="start" x="711" y="-100.3" font-family="Times,serif" font-size="14.00" fill="#000000">new</text>
<text text-anchor="start" x="711" y="-85.3" font-family="Times,serif" font-size="14.00" fill="#000000">show</text>
<text text-anchor="start" x="711" y="-70.3" font-family="Times,serif" font-size="14.00" fill="#000000">update</text>
<polyline fill="none" stroke="#000000" points="703,-62.5 829,-62.5 "/>
<polyline fill="none" stroke="#000000" points="703,-38.5 829,-38.5 "/>
<text text-anchor="start" x="711" y="-23.3" font-family="Times,serif" font-size="14.00" fill="#000000">_layout</text>
<text text-anchor="start" x="711" y="-8.3" font-family="Times,serif" font-size="14.00" fill="#000000">set_meeting</text>
</g>
<!-- MembersController -->
<g id="node6" class="node">
<title>MembersController</title>
<path fill="none" stroke="#000000" d="M354,-532.5C354,-532.5 457,-532.5 457,-532.5 463,-532.5 469,-538.5 469,-544.5 469,-544.5 469,-778.5 469,-778.5 469,-784.5 463,-790.5 457,-790.5 457,-790.5 354,-790.5 354,-790.5 348,-790.5 342,-784.5 342,-778.5 342,-778.5 342,-544.5 342,-544.5 342,-538.5 348,-532.5 354,-532.5"/>
<text text-anchor="middle" x="405.5" y="-775.3" font-family="Times,serif" font-size="14.00" fill="#000000">MembersController</text>
<polyline fill="none" stroke="#000000" points="342,-767.5 469,-767.5 "/>
<text text-anchor="start" x="350" y="-752.3" font-family="Times,serif" font-size="14.00" fill="#000000">update</text>
<text text-anchor="start" x="350" y="-737.3" font-family="Times,serif" font-size="14.00" fill="#000000">create</text>
<text text-anchor="start" x="350" y="-722.3" font-family="Times,serif" font-size="14.00" fill="#000000">destroy</text>
<text text-anchor="start" x="350" y="-707.3" font-family="Times,serif" font-size="14.00" fill="#000000">edit</text>
<text text-anchor="start" x="350" y="-692.3" font-family="Times,serif" font-size="14.00" fill="#000000">form_action_path</text>
<text text-anchor="start" x="350" y="-677.3" font-family="Times,serif" font-size="14.00" fill="#000000">index</text>
<text text-anchor="start" x="350" y="-662.3" font-family="Times,serif" font-size="14.00" fill="#000000">new_volunteer</text>
<text text-anchor="start" x="350" y="-647.3" font-family="Times,serif" font-size="14.00" fill="#000000">show</text>
<text text-anchor="start" x="350" y="-632.3" font-family="Times,serif" font-size="14.00" fill="#000000">back_path</text>
<polyline fill="none" stroke="#000000" points="342,-624.5 469,-624.5 "/>
<polyline fill="none" stroke="#000000" points="342,-600.5 469,-600.5 "/>
<text text-anchor="start" x="350" y="-585.3" font-family="Times,serif" font-size="14.00" fill="#000000">_layout</text>
<text text-anchor="start" x="350" y="-570.3" font-family="Times,serif" font-size="14.00" fill="#000000">member_params</text>
<text text-anchor="start" x="350" y="-555.3" font-family="Times,serif" font-size="14.00" fill="#000000">set_member</text>
<text text-anchor="start" x="350" y="-540.3" font-family="Times,serif" font-size="14.00" fill="#000000">set_project</text>
</g>
<!-- OpeningsController -->
<g id="node7" class="node">
<title>OpeningsController</title>
<path fill="none" stroke="#000000" d="M525,-456.5C525,-456.5 629,-456.5 629,-456.5 635,-456.5 641,-462.5 641,-468.5 641,-468.5 641,-717.5 641,-717.5 641,-723.5 635,-729.5 629,-729.5 629,-729.5 525,-729.5 525,-729.5 519,-729.5 513,-723.5 513,-717.5 513,-717.5 513,-468.5 513,-468.5 513,-462.5 519,-456.5 525,-456.5"/>
<text text-anchor="middle" x="577" y="-714.3" font-family="Times,serif" font-size="14.00" fill="#000000">OpeningsController</text>
<polyline fill="none" stroke="#000000" points="513,-706.5 641,-706.5 "/>
<text text-anchor="start" x="521" y="-691.3" font-family="Times,serif" font-size="14.00" fill="#000000">update</text>
<text text-anchor="start" x="521" y="-676.3" font-family="Times,serif" font-size="14.00" fill="#000000">create</text>
<text text-anchor="start" x="521" y="-661.3" font-family="Times,serif" font-size="14.00" fill="#000000">destroy</text>
<text text-anchor="start" x="521" y="-646.3" font-family="Times,serif" font-size="14.00" fill="#000000">edit</text>
<text text-anchor="start" x="521" y="-631.3" font-family="Times,serif" font-size="14.00" fill="#000000">form_submit_path</text>
<text text-anchor="start" x="521" y="-616.3" font-family="Times,serif" font-size="14.00" fill="#000000">index</text>
<text text-anchor="start" x="521" y="-601.3" font-family="Times,serif" font-size="14.00" fill="#000000">new</text>
<text text-anchor="start" x="521" y="-586.3" font-family="Times,serif" font-size="14.00" fill="#000000">show</text>
<text text-anchor="start" x="521" y="-571.3" font-family="Times,serif" font-size="14.00" fill="#000000">back_path</text>
<polyline fill="none" stroke="#000000" points="513,-563.5 641,-563.5 "/>
<polyline fill="none" stroke="#000000" points="513,-539.5 641,-539.5 "/>
<text text-anchor="start" x="521" y="-524.3" font-family="Times,serif" font-size="14.00" fill="#000000">_layout</text>
<text text-anchor="start" x="521" y="-509.3" font-family="Times,serif" font-size="14.00" fill="#000000">opening_params</text>
<text text-anchor="start" x="521" y="-494.3" font-family="Times,serif" font-size="14.00" fill="#000000">openings</text>
<text text-anchor="start" x="521" y="-479.3" font-family="Times,serif" font-size="14.00" fill="#000000">set_opening</text>
<text text-anchor="start" x="521" y="-464.3" font-family="Times,serif" font-size="14.00" fill="#000000">set_project</text>
</g>
<!-- ProjectsController -->
<g id="node8" class="node">
<title>ProjectsController</title>
<path fill="none" stroke="#000000" d="M183,-304.5C183,-304.5 278,-304.5 278,-304.5 284,-304.5 290,-310.5 290,-316.5 290,-316.5 290,-535.5 290,-535.5 290,-541.5 284,-547.5 278,-547.5 278,-547.5 183,-547.5 183,-547.5 177,-547.5 171,-541.5 171,-535.5 171,-535.5 171,-316.5 171,-316.5 171,-310.5 177,-304.5 183,-304.5"/>
<text text-anchor="middle" x="230.5" y="-532.3" font-family="Times,serif" font-size="14.00" fill="#000000">ProjectsController</text>
<polyline fill="none" stroke="#000000" points="171,-524.5 290,-524.5 "/>
<text text-anchor="start" x="179" y="-509.3" font-family="Times,serif" font-size="14.00" fill="#000000">update</text>
<text text-anchor="start" x="179" y="-494.3" font-family="Times,serif" font-size="14.00" fill="#000000">destroy</text>
<text text-anchor="start" x="179" y="-479.3" font-family="Times,serif" font-size="14.00" fill="#000000">edit</text>
<text text-anchor="start" x="179" y="-464.3" font-family="Times,serif" font-size="14.00" fill="#000000">index</text>
<text text-anchor="start" x="179" y="-449.3" font-family="Times,serif" font-size="14.00" fill="#000000">new</text>
<text text-anchor="start" x="179" y="-434.3" font-family="Times,serif" font-size="14.00" fill="#000000">search</text>
<text text-anchor="start" x="179" y="-419.3" font-family="Times,serif" font-size="14.00" fill="#000000">show</text>
<text text-anchor="start" x="179" y="-404.3" font-family="Times,serif" font-size="14.00" fill="#000000">create</text>
<polyline fill="none" stroke="#000000" points="171,-396.5 290,-396.5 "/>
<polyline fill="none" stroke="#000000" points="171,-372.5 290,-372.5 "/>
<text text-anchor="start" x="179" y="-357.3" font-family="Times,serif" font-size="14.00" fill="#000000">_layout</text>
<text text-anchor="start" x="179" y="-342.3" font-family="Times,serif" font-size="14.00" fill="#000000">project_params</text>
<text text-anchor="start" x="179" y="-327.3" font-family="Times,serif" font-size="14.00" fill="#000000">search_params</text>
<text text-anchor="start" x="179" y="-312.3" font-family="Times,serif" font-size="14.00" fill="#000000">set_project</text>
</g>
<!-- RedirectController -->
<g id="node9" class="node">
<title>RedirectController</title>
<path fill="none" stroke="#000000" d="M12,-741.5C12,-741.5 109,-741.5 109,-741.5 115,-741.5 121,-747.5 121,-753.5 121,-753.5 121,-822.5 121,-822.5 121,-828.5 115,-834.5 109,-834.5 109,-834.5 12,-834.5 12,-834.5 6,-834.5 0,-828.5 0,-822.5 0,-822.5 0,-753.5 0,-753.5 0,-747.5 6,-741.5 12,-741.5"/>
<text text-anchor="middle" x="60.5" y="-819.3" font-family="Times,serif" font-size="14.00" fill="#000000">RedirectController</text>
<polyline fill="none" stroke="#000000" points="0,-811.5 121,-811.5 "/>
<text text-anchor="start" x="8" y="-796.3" font-family="Times,serif" font-size="14.00" fill="#000000">me</text>
<polyline fill="none" stroke="#000000" points="0,-788.5 121,-788.5 "/>
<polyline fill="none" stroke="#000000" points="0,-764.5 121,-764.5 "/>
<text text-anchor="start" x="8" y="-749.3" font-family="Times,serif" font-size="14.00" fill="#000000">_layout</text>
</g>
<!-- RequestResetsController -->
<g id="node10" class="node">
<title>RequestResetsController</title>
<path fill="none" stroke="#000000" d="M335,-19.5C335,-19.5 467,-19.5 467,-19.5 473,-19.5 479,-25.5 479,-31.5 479,-31.5 479,-130.5 479,-130.5 479,-136.5 473,-142.5 467,-142.5 467,-142.5 335,-142.5 335,-142.5 329,-142.5 323,-136.5 323,-130.5 323,-130.5 323,-31.5 323,-31.5 323,-25.5 329,-19.5 335,-19.5"/>
<text text-anchor="middle" x="401" y="-127.3" font-family="Times,serif" font-size="14.00" fill="#000000">RequestResetsController</text>
<polyline fill="none" stroke="#000000" points="323,-119.5 479,-119.5 "/>
<text text-anchor="start" x="331" y="-104.3" font-family="Times,serif" font-size="14.00" fill="#000000">create</text>
<text text-anchor="start" x="331" y="-89.3" font-family="Times,serif" font-size="14.00" fill="#000000">show</text>
<polyline fill="none" stroke="#000000" points="323,-81.5 479,-81.5 "/>
<polyline fill="none" stroke="#000000" points="323,-57.5 479,-57.5 "/>
<text text-anchor="start" x="331" y="-42.3" font-family="Times,serif" font-size="14.00" fill="#000000">_layout</text>
<text text-anchor="start" x="331" y="-27.3" font-family="Times,serif" font-size="14.00" fill="#000000">params_permit</text>
</g>
<!-- StaticController -->
<g id="node11" class="node">
<title>StaticController</title>
<path fill="none" stroke="#000000" d="M772,-703.5C772,-703.5 854,-703.5 854,-703.5 860,-703.5 866,-709.5 866,-715.5 866,-715.5 866,-874.5 866,-874.5 866,-880.5 860,-886.5 854,-886.5 854,-886.5 772,-886.5 772,-886.5 766,-886.5 760,-880.5 760,-874.5 760,-874.5 760,-715.5 760,-715.5 760,-709.5 766,-703.5 772,-703.5"/>
<text text-anchor="middle" x="813" y="-871.3" font-family="Times,serif" font-size="14.00" fill="#000000">StaticController</text>
<polyline fill="none" stroke="#000000" points="760,-863.5 866,-863.5 "/>
<text text-anchor="start" x="768" y="-848.3" font-family="Times,serif" font-size="14.00" fill="#000000">login</text>
<text text-anchor="start" x="768" y="-833.3" font-family="Times,serif" font-size="14.00" fill="#000000">httpsify</text>
<text text-anchor="start" x="768" y="-818.3" font-family="Times,serif" font-size="14.00" fill="#000000">impersonate</text>
<text text-anchor="start" x="768" y="-803.3" font-family="Times,serif" font-size="14.00" fill="#000000">home</text>
<text text-anchor="start" x="768" y="-788.3" font-family="Times,serif" font-size="14.00" fill="#000000">login_post</text>
<text text-anchor="start" x="768" y="-773.3" font-family="Times,serif" font-size="14.00" fill="#000000">logout</text>
<text text-anchor="start" x="768" y="-758.3" font-family="Times,serif" font-size="14.00" fill="#000000">signup</text>
<polyline fill="none" stroke="#000000" points="760,-750.5 866,-750.5 "/>
<polyline fill="none" stroke="#000000" points="760,-726.5 866,-726.5 "/>
<text text-anchor="start" x="768" y="-711.3" font-family="Times,serif" font-size="14.00" fill="#000000">_layout</text>
</g>
<!-- StatusReportsController -->
<g id="node12" class="node">
<title>StatusReportsController</title>
<path fill="none" stroke="#000000" d="M335,-171.5C335,-171.5 463,-171.5 463,-171.5 469,-171.5 475,-177.5 475,-183.5 475,-183.5 475,-477.5 475,-477.5 475,-483.5 469,-489.5 463,-489.5 463,-489.5 335,-489.5 335,-489.5 329,-489.5 323,-483.5 323,-477.5 323,-477.5 323,-183.5 323,-183.5 323,-177.5 329,-171.5 335,-171.5"/>
<text text-anchor="middle" x="399" y="-474.3" font-family="Times,serif" font-size="14.00" fill="#000000">StatusReportsController</text>
<polyline fill="none" stroke="#000000" points="323,-466.5 475,-466.5 "/>
<text text-anchor="start" x="331" y="-451.3" font-family="Times,serif" font-size="14.00" fill="#000000">update</text>
<text text-anchor="start" x="331" y="-436.3" font-family="Times,serif" font-size="14.00" fill="#000000">create</text>
<text text-anchor="start" x="331" y="-421.3" font-family="Times,serif" font-size="14.00" fill="#000000">destroy</text>
<text text-anchor="start" x="331" y="-406.3" font-family="Times,serif" font-size="14.00" fill="#000000">edit</text>
<text text-anchor="start" x="331" y="-391.3" font-family="Times,serif" font-size="14.00" fill="#000000">form_submit_path</text>
<text text-anchor="start" x="331" y="-376.3" font-family="Times,serif" font-size="14.00" fill="#000000">index</text>
<text text-anchor="start" x="331" y="-361.3" font-family="Times,serif" font-size="14.00" fill="#000000">my</text>
<text text-anchor="start" x="331" y="-346.3" font-family="Times,serif" font-size="14.00" fill="#000000">my_edit</text>
<text text-anchor="start" x="331" y="-331.3" font-family="Times,serif" font-size="14.00" fill="#000000">my_edit_post</text>
<text text-anchor="start" x="331" y="-316.3" font-family="Times,serif" font-size="14.00" fill="#000000">my_publish</text>
<text text-anchor="start" x="331" y="-301.3" font-family="Times,serif" font-size="14.00" fill="#000000">new</text>
<text text-anchor="start" x="331" y="-286.3" font-family="Times,serif" font-size="14.00" fill="#000000">show</text>
<text text-anchor="start" x="331" y="-271.3" font-family="Times,serif" font-size="14.00" fill="#000000">back_path</text>
<polyline fill="none" stroke="#000000" points="323,-263.5 475,-263.5 "/>
<polyline fill="none" stroke="#000000" points="323,-239.5 475,-239.5 "/>
<text text-anchor="start" x="331" y="-224.3" font-family="Times,serif" font-size="14.00" fill="#000000">_layout</text>
<text text-anchor="start" x="331" y="-209.3" font-family="Times,serif" font-size="14.00" fill="#000000">set_profile_or_project</text>
<text text-anchor="start" x="331" y="-194.3" font-family="Times,serif" font-size="14.00" fill="#000000">set_status_report</text>
<text text-anchor="start" x="331" y="-179.3" font-family="Times,serif" font-size="14.00" fill="#000000">status_report_params</text>
</g>
<!-- TemplatesController -->
<g id="node13" class="node">
<title>TemplatesController</title>
<path fill="none" stroke="#000000" d="M696,-456.5C696,-456.5 804,-456.5 804,-456.5 810,-456.5 816,-462.5 816,-468.5 816,-468.5 816,-657.5 816,-657.5 816,-663.5 810,-669.5 804,-669.5 804,-669.5 696,-669.5 696,-669.5 690,-669.5 684,-663.5 684,-657.5 684,-657.5 684,-468.5 684,-468.5 684,-462.5 690,-456.5 696,-456.5"/>
<text text-anchor="middle" x="750" y="-654.3" font-family="Times,serif" font-size="14.00" fill="#000000">TemplatesController</text>
<polyline fill="none" stroke="#000000" points="684,-646.5 816,-646.5 "/>
<text text-anchor="start" x="692" y="-631.3" font-family="Times,serif" font-size="14.00" fill="#000000">index</text>
<text text-anchor="start" x="692" y="-616.3" font-family="Times,serif" font-size="14.00" fill="#000000">destroy</text>
<text text-anchor="start" x="692" y="-601.3" font-family="Times,serif" font-size="14.00" fill="#000000">edit</text>
<text text-anchor="start" x="692" y="-586.3" font-family="Times,serif" font-size="14.00" fill="#000000">create</text>
<text text-anchor="start" x="692" y="-571.3" font-family="Times,serif" font-size="14.00" fill="#000000">new</text>
<text text-anchor="start" x="692" y="-556.3" font-family="Times,serif" font-size="14.00" fill="#000000">show</text>
<text text-anchor="start" x="692" y="-541.3" font-family="Times,serif" font-size="14.00" fill="#000000">update</text>
<polyline fill="none" stroke="#000000" points="684,-533.5 816,-533.5 "/>
<polyline fill="none" stroke="#000000" points="684,-509.5 816,-509.5 "/>
<text text-anchor="start" x="692" y="-494.3" font-family="Times,serif" font-size="14.00" fill="#000000">_layout</text>
<text text-anchor="start" x="692" y="-479.3" font-family="Times,serif" font-size="14.00" fill="#000000">set_template</text>
<text text-anchor="start" x="692" y="-464.3" font-family="Times,serif" font-size="14.00" fill="#000000">template_params</text>
</g>
<!-- UsersController -->
<g id="node14" class="node">
<title>UsersController</title>
<path fill="none" stroke="#000000" d="M31,-304.5C31,-304.5 123,-304.5 123,-304.5 129,-304.5 135,-310.5 135,-316.5 135,-316.5 135,-400.5 135,-400.5 135,-406.5 129,-412.5 123,-412.5 123,-412.5 31,-412.5 31,-412.5 25,-412.5 19,-406.5 19,-400.5 19,-400.5 19,-316.5 19,-316.5 19,-310.5 25,-304.5 31,-304.5"/>
<text text-anchor="middle" x="77" y="-397.3" font-family="Times,serif" font-size="14.00" fill="#000000">UsersController</text>
<polyline fill="none" stroke="#000000" points="19,-389.5 135,-389.5 "/>
<text text-anchor="start" x="27" y="-374.3" font-family="Times,serif" font-size="14.00" fill="#000000">change_password</text>
<text text-anchor="start" x="27" y="-359.3" font-family="Times,serif" font-size="14.00" fill="#000000">set_password</text>
<polyline fill="none" stroke="#000000" points="19,-351.5 135,-351.5 "/>
<polyline fill="none" stroke="#000000" points="19,-327.5 135,-327.5 "/>
<text text-anchor="start" x="27" y="-312.3" font-family="Times,serif" font-size="14.00" fill="#000000">_layout</text>
</g>
<!-- ValidationTokensController -->
<g id="node15" class="node">
<title>ValidationTokensController</title>
<path fill="none" stroke="#000000" d="M525,-228.5C525,-228.5 721,-228.5 721,-228.5 727,-228.5 733,-234.5 733,-240.5 733,-240.5 733,-414.5 733,-414.5 733,-420.5 727,-426.5 721,-426.5 721,-426.5 525,-426.5 525,-426.5 519,-426.5 513,-420.5 513,-414.5 513,-414.5 513,-240.5 513,-240.5 513,-234.5 519,-228.5 525,-228.5"/>
<text text-anchor="middle" x="623" y="-411.3" font-family="Times,serif" font-size="14.00" fill="#000000">ValidationTokensController</text>
<polyline fill="none" stroke="#000000" points="513,-403.5 733,-403.5 "/>
<text text-anchor="start" x="521" y="-388.3" font-family="Times,serif" font-size="14.00" fill="#000000">_confirm_user_email_callbacks</text>
<text text-anchor="start" x="521" y="-373.3" font-family="Times,serif" font-size="14.00" fill="#000000">_confirm_user_email_callbacks?</text>
<text text-anchor="start" x="521" y="-358.3" font-family="Times,serif" font-size="14.00" fill="#000000">_run_confirm_user_email_callbacks</text>
<text text-anchor="start" x="521" y="-343.3" font-family="Times,serif" font-size="14.00" fill="#000000">reset_password_presenters_path</text>
<text text-anchor="start" x="521" y="-328.3" font-family="Times,serif" font-size="14.00" fill="#000000">show</text>
<text text-anchor="start" x="521" y="-313.3" font-family="Times,serif" font-size="14.00" fill="#000000">update</text>
<polyline fill="none" stroke="#000000" points="513,-305.5 733,-305.5 "/>
<polyline fill="none" stroke="#000000" points="513,-281.5 733,-281.5 "/>
<text text-anchor="start" x="521" y="-266.3" font-family="Times,serif" font-size="14.00" fill="#000000">_layout</text>
<text text-anchor="start" x="521" y="-251.3" font-family="Times,serif" font-size="14.00" fill="#000000">find_token</text>
<text text-anchor="start" x="521" y="-236.3" font-family="Times,serif" font-size="14.00" fill="#000000">reset_password_params</text>
</g>
<!-- VolunteersController -->
<g id="node16" class="node">
<title>VolunteersController</title>
<path fill="none" stroke="#000000" d="M164,-589.5C164,-589.5 285,-589.5 285,-589.5 291,-589.5 297,-595.5 297,-601.5 297,-601.5 297,-790.5 297,-790.5 297,-796.5 291,-802.5 285,-802.5 285,-802.5 164,-802.5 164,-802.5 158,-802.5 152,-796.5 152,-790.5 152,-790.5 152,-601.5 152,-601.5 152,-595.5 158,-589.5 164,-589.5"/>
<text text-anchor="middle" x="224.5" y="-787.3" font-family="Times,serif" font-size="14.00" fill="#000000">VolunteersController</text>
<polyline fill="none" stroke="#000000" points="152,-779.5 297,-779.5 "/>
<text text-anchor="start" x="160" y="-764.3" font-family="Times,serif" font-size="14.00" fill="#000000">search_profiles_path</text>
<text text-anchor="start" x="160" y="-749.3" font-family="Times,serif" font-size="14.00" fill="#000000">edit_profile_path</text>
<text text-anchor="start" x="160" y="-734.3" font-family="Times,serif" font-size="14.00" fill="#000000">new_profile_path</text>
<text text-anchor="start" x="160" y="-719.3" font-family="Times,serif" font-size="14.00" fill="#000000">profile_path</text>
<text text-anchor="start" x="160" y="-704.3" font-family="Times,serif" font-size="14.00" fill="#000000">profile_resource_name</text>
<text text-anchor="start" x="160" y="-689.3" font-family="Times,serif" font-size="14.00" fill="#000000">profile_set_flag</text>
<text text-anchor="start" x="160" y="-674.3" font-family="Times,serif" font-size="14.00" fill="#000000">profiles_path</text>
<text text-anchor="start" x="160" y="-659.3" font-family="Times,serif" font-size="14.00" fill="#000000">profiles_scope</text>
<text text-anchor="start" x="160" y="-644.3" font-family="Times,serif" font-size="14.00" fill="#000000">assignments</text>
<polyline fill="none" stroke="#000000" points="152,-636.5 297,-636.5 "/>
<polyline fill="none" stroke="#000000" points="152,-612.5 297,-612.5 "/>
<text text-anchor="start" x="160" y="-597.3" font-family="Times,serif" font-size="14.00" fill="#000000">_layout</text>
</g>
</g>
</svg>
