<?xml version="1.0" encoding="UTF-8" standalone="no"?>
<!DOCTYPE svg PUBLIC "-//W3C//DTD SVG 1.1//EN"
 "http://www.w3.org/Graphics/SVG/1.1/DTD/svg11.dtd">
<!-- Generated by graphviz version 2.40.1 (20161225.0304)
 -->
<!-- Title: models_diagram Pages: 1 -->
<svg width="838pt" height="333pt"
 viewBox="0.00 0.00 838.14 333.00" xmlns="http://www.w3.org/2000/svg" xmlns:xlink="http://www.w3.org/1999/xlink">
<g id="graph0" class="graph" transform="scale(1 1) rotate(0) translate(4 329)">
<title>models_diagram</title>
<polygon fill="transparent" stroke="transparent" points="-4,4 -4,-329 834.1436,-329 834.1436,4 -4,4"/>
<!-- _diagram_info -->
<g id="node1" class="node">
<title>_diagram_info</title>
<text text-anchor="start" x="8" y="-310.6" font-family="Times,serif" font-size="13.00" fill="#000000">Models diagram</text>
<text text-anchor="start" x="8" y="-296.6" font-family="Times,serif" font-size="13.00" fill="#000000">Date: Jul 27 2017 &#45; 21:03</text>
<text text-anchor="start" x="8" y="-282.6" font-family="Times,serif" font-size="13.00" fill="#000000">Migration version: 20170309170139</text>
<text text-anchor="start" x="8" y="-268.6" font-family="Times,serif" font-size="13.00" fill="#000000">Generated by RailRoady 1.5.3</text>
<text text-anchor="start" x="8" y="-254.6" font-family="Times,serif" font-size="13.00" fill="#000000">http://railroady.prestonlee.com</text>
</g>
<!-- ApplicationRecord -->
<g id="node2" class="node">
<title>ApplicationRecord</title>
<ellipse fill="none" stroke="#000000" cx="306" cy="-286" rx="79.8859" ry="18"/>
<text text-anchor="middle" x="306" y="-282.3" font-family="Times,serif" font-size="14.00" fill="#000000">ApplicationRecord</text>
</g>
<!-- Meeting -->
<g id="node3" class="node">
<title>Meeting</title>
<ellipse fill="none" stroke="#000000" cx="445" cy="-286" rx="40.8928" ry="18"/>
<text text-anchor="middle" x="445" y="-282.3" font-family="Times,serif" font-size="14.00" fill="#000000">Meeting</text>
</g>
<!-- Profile -->
<g id="node5" class="node">
<title>Profile</title>
<ellipse fill="none" stroke="#000000" cx="445" cy="-192" rx="35.194" ry="18"/>
<text text-anchor="middle" x="445" y="-188.3" font-family="Times,serif" font-size="14.00" fill="#000000">Profile</text>
</g>
<!-- Meeting&#45;&gt;Profile -->
<g id="edge1" class="edge">
<title>Meeting&#45;&gt;Profile</title>
<path fill="none" stroke="#3f6a38" d="M445,-257.785C445,-245.9355 445,-232.1793 445,-220.3188"/>
<polygon fill="#3f6a38" stroke="#3f6a38" points="445.0001,-257.8759 440.5,-267.8758 445,-262.8759 445,-267.8759 445,-267.8759 445,-267.8759 445,-262.8759 449.5,-267.8759 445.0001,-257.8759 445.0001,-257.8759"/>
<polygon fill="#3f6a38" stroke="#3f6a38" points="445.0001,-220.0685 449.5,-210.0685 445,-215.0685 445,-210.0685 445,-210.0685 445,-210.0685 445,-215.0685 440.5,-210.0685 445.0001,-220.0685 445.0001,-220.0685"/>
</g>
<!-- Opening -->
<g id="node4" class="node">
<title>Opening</title>
<ellipse fill="none" stroke="#000000" cx="447" cy="-18" rx="42.4939" ry="18"/>
<text text-anchor="middle" x="447" y="-14.3" font-family="Times,serif" font-size="14.00" fill="#000000">Opening</text>
</g>
<!-- Project -->
<g id="node6" class="node">
<title>Project</title>
<ellipse fill="none" stroke="#000000" cx="447" cy="-105" rx="36.2938" ry="18"/>
<text text-anchor="middle" x="447" y="-101.3" font-family="Times,serif" font-size="14.00" fill="#000000">Project</text>
</g>
<!-- Profile&#45;&gt;Project -->
<g id="edge3" class="edge">
<title>Profile&#45;&gt;Project</title>
<path fill="none" stroke="#dd6351" d="M442.927,-163.392C442.6589,-156.0887 442.5983,-148.2521 443,-141 443.135,-138.563 443.321,-136.0375 443.5394,-133.5063"/>
<polygon fill="#dd6351" stroke="#dd6351" points="442.937,-163.593 438.944,-173.8061 443.1877,-168.5867 443.4384,-173.5805 443.4384,-173.5805 443.4384,-173.5805 443.1877,-168.5867 447.9327,-173.3548 442.937,-163.593 442.937,-163.593"/>
<polygon fill="#dd6351" stroke="#dd6351" points="443.5671,-133.2308 449.0496,-123.7338 444.0698,-128.2561 444.5724,-123.2815 444.5724,-123.2815 444.5724,-123.2815 444.0698,-128.2561 440.0952,-122.8291 443.5671,-133.2308 443.5671,-133.2308"/>
</g>
<!-- Profile&#45;&gt;Project -->
<g id="edge4" class="edge">
<title>Profile&#45;&gt;Project</title>
<path fill="none" stroke="#138b73" d="M445.6025,-165.7895C445.8384,-155.5307 446.1094,-143.7397 446.3497,-133.2888"/>
<ellipse fill="none" stroke="#138b73" cx="445.5064" cy="-169.9746" rx="4" ry="4"/>
<polygon fill="#138b73" stroke="#138b73" points="446.3562,-133.0007 451.0849,-123.1068 446.4712,-128.002 446.5861,-123.0034 446.5861,-123.0034 446.5861,-123.0034 446.4712,-128.002 442.0873,-122.8999 446.3562,-133.0007 446.3562,-133.0007"/>
<text text-anchor="middle" x="483.5" y="-144.8" font-family="Times,serif" font-size="14.00" fill="#000000">lead_projects</text>
</g>
<!-- ProjectMember -->
<g id="node7" class="node">
<title>ProjectMember</title>
<ellipse fill="none" stroke="#000000" cx="575" cy="-18" rx="67.6881" ry="18"/>
<text text-anchor="middle" x="575" y="-14.3" font-family="Times,serif" font-size="14.00" fill="#000000">ProjectMember</text>
</g>
<!-- Profile&#45;&gt;ProjectMember -->
<g id="edge2" class="edge">
<title>Profile&#45;&gt;ProjectMember</title>
<path fill="none" stroke="#45ea69" d="M484.8166,-181.2446C499.0703,-175.6984 514.2516,-167.5892 525,-156 553.5213,-125.2476 566.0362,-76.9933 571.3372,-46.4549"/>
<ellipse fill="none" stroke="#45ea69" cx="480.788" cy="-182.7048" rx="4" ry="4"/>
<polygon fill="#45ea69" stroke="#45ea69" points="571.3576,-46.326 577.3701,-37.1554 572.1416,-41.3878 572.9257,-36.4497 572.9257,-36.4497 572.9257,-36.4497 572.1416,-41.3878 568.4814,-35.744 571.3576,-46.326 571.3576,-46.326"/>
<text text-anchor="middle" x="598.5" y="-101.3" font-family="Times,serif" font-size="14.00" fill="#000000">memberships</text>
</g>
<!-- StatusReport -->
<g id="node8" class="node">
<title>StatusReport</title>
<ellipse fill="none" stroke="#000000" cx="329" cy="-18" rx="57.6901" ry="18"/>
<text text-anchor="middle" x="329" y="-14.3" font-family="Times,serif" font-size="14.00" fill="#000000">StatusReport</text>
</g>
<!-- Profile&#45;&gt;StatusReport -->
<g id="edge5" class="edge">
<title>Profile&#45;&gt;StatusReport</title>
<path fill="none" stroke="#d97a62" d="M429.0136,-168.0204C407.3526,-135.5288 368.8215,-77.7323 346.4361,-44.1542"/>
<ellipse fill="none" stroke="#d97a62" cx="431.2346" cy="-171.3519" rx="4" ry="4"/>
<polygon fill="#d97a62" stroke="#d97a62" points="346.3923,-44.0884 344.5895,-33.2717 343.6188,-39.9282 340.8453,-35.7679 340.8453,-35.7679 340.8453,-35.7679 343.6188,-39.9282 337.101,-38.2641 346.3923,-44.0884 346.3923,-44.0884"/>
</g>
<!-- Project&#45;&gt;Opening -->
<g id="edge8" class="edge">
<title>Project&#45;&gt;Opening</title>
<path fill="none" stroke="#b09e3d" d="M447,-78.7895C447,-68.5307 447,-56.7397 447,-46.2888"/>
<ellipse fill="none" stroke="#b09e3d" cx="447" cy="-82.9735" rx="4" ry="4"/>
<polygon fill="#b09e3d" stroke="#b09e3d" points="447.0001,-46.0034 451.5,-36.0033 447,-41.0034 447,-36.0034 447,-36.0034 447,-36.0034 447,-41.0034 442.5,-36.0034 447.0001,-46.0034 447.0001,-46.0034"/>
</g>
<!-- Project&#45;&gt;ProjectMember -->
<g id="edge6" class="edge">
<title>Project&#45;&gt;ProjectMember</title>
<path fill="none" stroke="#9e7e3a" d="M468.0636,-82.7533C477.8236,-73.1862 489.9198,-62.3163 502,-54 510.6441,-48.0492 520.4164,-42.5213 529.9349,-37.6719"/>
<ellipse fill="none" stroke="#9e7e3a" cx="465.138" cy="-85.6788" rx="4" ry="4"/>
<polygon fill="#9e7e3a" stroke="#9e7e3a" points="529.9667,-37.6563 540.926,-37.2757 534.4523,-35.4474 538.938,-33.2386 538.938,-33.2386 538.938,-33.2386 534.4523,-35.4474 536.95,-29.2015 529.9667,-37.6563 529.9667,-37.6563"/>
<text text-anchor="middle" x="528" y="-57.8" font-family="Times,serif" font-size="14.00" fill="#000000">members</text>
</g>
<!-- Project&#45;&gt;StatusReport -->
<g id="edge7" class="edge">
<title>Project&#45;&gt;StatusReport</title>
<path fill="none" stroke="#f1c715" d="M420.0374,-85.1208C402.1693,-71.9469 378.6747,-54.6246 360.0292,-40.8775"/>
<ellipse fill="none" stroke="#f1c715" cx="423.4955" cy="-87.6704" rx="4" ry="4"/>
<polygon fill="#f1c715" stroke="#f1c715" points="359.89,-40.7749 354.5116,-31.2185 355.8656,-37.8077 351.8412,-34.8405 351.8412,-34.8405 351.8412,-34.8405 355.8656,-37.8077 349.1707,-38.4625 359.89,-40.7749 359.89,-40.7749"/>
</g>
<!-- Template -->
<g id="node9" class="node">
<title>Template</title>
<ellipse fill="none" stroke="#000000" cx="549" cy="-286" rx="44.6926" ry="18"/>
<text text-anchor="middle" x="549" y="-282.3" font-family="Times,serif" font-size="14.00" fill="#000000">Template</text>
</g>
<!-- User -->
<g id="node10" class="node">
<title>User</title>
<ellipse fill="none" stroke="#000000" cx="640" cy="-286" rx="27.8951" ry="18"/>
<text text-anchor="middle" x="640" y="-282.3" font-family="Times,serif" font-size="14.00" fill="#000000">User</text>
</g>
<!-- ValidationToken -->
<g id="node11" class="node">
<title>ValidationToken</title>
<ellipse fill="none" stroke="#000000" cx="758" cy="-286" rx="72.2875" ry="18"/>
<text text-anchor="middle" x="758" y="-282.3" font-family="Times,serif" font-size="14.00" fill="#000000">ValidationToken</text>
</g>
</g>
</svg>
