<?xml version="1.0" encoding="UTF-8" standalone="no"?>
<!DOCTYPE svg PUBLIC "-//W3C//DTD SVG 1.1//EN"
 "http://www.w3.org/Graphics/SVG/1.1/DTD/svg11.dtd">
<!-- Generated by graphviz version 2.40.1 (20161225.0304)
 -->
<!-- Title: models_diagram Pages: 1 -->
<svg width="1458pt" height="1145pt"
 viewBox="0.00 0.00 1458.00 1145.00" xmlns="http://www.w3.org/2000/svg" xmlns:xlink="http://www.w3.org/1999/xlink">
<g id="graph0" class="graph" transform="scale(1 1) rotate(0) translate(4 1141)">
<title>models_diagram</title>
<polygon fill="transparent" stroke="transparent" points="-4,4 -4,-1141 1454,-1141 1454,4 -4,4"/>
<!-- _diagram_info -->
<g id="node1" class="node">
<title>_diagram_info</title>
<text text-anchor="start" x="8" y="-1063.1" font-family="Times,serif" font-size="13.00" fill="#000000">Models diagram</text>
<text text-anchor="start" x="8" y="-1049.1" font-family="Times,serif" font-size="13.00" fill="#000000">Date: Jul 27 2017 &#45; 21:03</text>
<text text-anchor="start" x="8" y="-1035.1" font-family="Times,serif" font-size="13.00" fill="#000000">Migration version: 20170309170139</text>
<text text-anchor="start" x="8" y="-1021.1" font-family="Times,serif" font-size="13.00" fill="#000000">Generated by RailRoady 1.5.3</text>
<text text-anchor="start" x="8" y="-1007.1" font-family="Times,serif" font-size="13.00" fill="#000000">http://railroady.prestonlee.com</text>
</g>
<!-- ApplicationRecord -->
<g id="node2" class="node">
<title>ApplicationRecord</title>
<ellipse fill="none" stroke="#000000" cx="306" cy="-1038.5" rx="79.8859" ry="18"/>
<text text-anchor="middle" x="306" y="-1034.8" font-family="Times,serif" font-size="14.00" fill="#000000">ApplicationRecord</text>
</g>
<!-- Meeting -->
<g id="node3" class="node">
<title>Meeting</title>
<path fill="none" stroke="#000000" d="M416,-940.5C416,-940.5 640,-940.5 640,-940.5 646,-940.5 652,-946.5 652,-952.5 652,-952.5 652,-1124.5 652,-1124.5 652,-1130.5 646,-1136.5 640,-1136.5 640,-1136.5 416,-1136.5 416,-1136.5 410,-1136.5 404,-1130.5 404,-1124.5 404,-1124.5 404,-952.5 404,-952.5 404,-946.5 410,-940.5 416,-940.5"/>
<text text-anchor="middle" x="528" y="-1121.3" font-family="Times,serif" font-size="14.00" fill="#000000">Meeting</text>
<polyline fill="none" stroke="#000000" points="404,-1113.5 652,-1113.5 "/>
<text text-anchor="start" x="412" y="-1098.3" font-family="Times,serif" font-size="14.00" fill="#000000">updated_at :timestamp without time zone</text>
<text text-anchor="start" x="412" y="-1083.3" font-family="Times,serif" font-size="14.00" fill="#000000">location :character varying</text>
<text text-anchor="start" x="412" y="-1068.3" font-family="Times,serif" font-size="14.00" fill="#000000">agency :character varying</text>
<text text-anchor="start" x="412" y="-1053.3" font-family="Times,serif" font-size="14.00" fill="#000000">date :timestamp without time zone</text>
<text text-anchor="start" x="412" y="-1038.3" font-family="Times,serif" font-size="14.00" fill="#000000">attendees :character varying</text>
<text text-anchor="start" x="412" y="-1023.3" font-family="Times,serif" font-size="14.00" fill="#000000">summary :character varying</text>
<text text-anchor="start" x="412" y="-1008.3" font-family="Times,serif" font-size="14.00" fill="#000000">notes :text</text>
<text text-anchor="start" x="412" y="-993.3" font-family="Times,serif" font-size="14.00" fill="#000000">attn_coordinators :text</text>
<text text-anchor="start" x="412" y="-978.3" font-family="Times,serif" font-size="14.00" fill="#000000">tags :character varying</text>
<text text-anchor="start" x="412" y="-963.3" font-family="Times,serif" font-size="14.00" fill="#000000">created_at :timestamp without time zone</text>
<text text-anchor="start" x="412" y="-948.3" font-family="Times,serif" font-size="14.00" fill="#000000">id :integer</text>
</g>
<!-- Profile -->
<g id="node5" class="node">
<title>Profile</title>
<path fill="none" stroke="#000000" d="M416,-556.5C416,-556.5 640,-556.5 640,-556.5 646,-556.5 652,-562.5 652,-568.5 652,-568.5 652,-890.5 652,-890.5 652,-896.5 646,-902.5 640,-902.5 640,-902.5 416,-902.5 416,-902.5 410,-902.5 404,-896.5 404,-890.5 404,-890.5 404,-568.5 404,-568.5 404,-562.5 410,-556.5 416,-556.5"/>
<text text-anchor="middle" x="528" y="-887.3" font-family="Times,serif" font-size="14.00" fill="#000000">Profile</text>
<polyline fill="none" stroke="#000000" points="404,-879.5 652,-879.5 "/>
<text text-anchor="start" x="412" y="-864.3" font-family="Times,serif" font-size="14.00" fill="#000000">notes :text</text>
<text text-anchor="start" x="412" y="-849.3" font-family="Times,serif" font-size="14.00" fill="#000000">full_name :character varying</text>
<text text-anchor="start" x="412" y="-834.3" font-family="Times,serif" font-size="14.00" fill="#000000">nick_name :character varying</text>
<text text-anchor="start" x="412" y="-819.3" font-family="Times,serif" font-size="14.00" fill="#000000">email :character varying</text>
<text text-anchor="start" x="412" y="-804.3" font-family="Times,serif" font-size="14.00" fill="#000000">contacts :json</text>
<text text-anchor="start" x="412" y="-789.3" font-family="Times,serif" font-size="14.00" fill="#000000">location :character varying</text>
<text text-anchor="start" x="412" y="-774.3" font-family="Times,serif" font-size="14.00" fill="#000000">photo :character varying</text>
<text text-anchor="start" x="412" y="-759.3" font-family="Times,serif" font-size="14.00" fill="#000000">curriculum :character varying</text>
<text text-anchor="start" x="412" y="-744.3" font-family="Times,serif" font-size="14.00" fill="#000000">description :text</text>
<text text-anchor="start" x="412" y="-729.3" font-family="Times,serif" font-size="14.00" fill="#000000">urls :jsonb</text>
<text text-anchor="start" x="412" y="-714.3" font-family="Times,serif" font-size="14.00" fill="#000000">title :character varying</text>
<text text-anchor="start" x="412" y="-699.3" font-family="Times,serif" font-size="14.00" fill="#000000">workplace :character varying</text>
<text text-anchor="start" x="412" y="-684.3" font-family="Times,serif" font-size="14.00" fill="#000000">tags :character varying</text>
<text text-anchor="start" x="412" y="-669.3" font-family="Times,serif" font-size="14.00" fill="#000000">skills :character varying</text>
<text text-anchor="start" x="412" y="-654.3" font-family="Times,serif" font-size="14.00" fill="#000000">status :integer</text>
<text text-anchor="start" x="412" y="-639.3" font-family="Times,serif" font-size="14.00" fill="#000000">flags :integer</text>
<text text-anchor="start" x="412" y="-624.3" font-family="Times,serif" font-size="14.00" fill="#000000">created_at :timestamp without time zone</text>
<text text-anchor="start" x="412" y="-609.3" font-family="Times,serif" font-size="14.00" fill="#000000">updated_at :timestamp without time zone</text>
<text text-anchor="start" x="412" y="-594.3" font-family="Times,serif" font-size="14.00" fill="#000000">hidden_tags :character varying</text>
<text text-anchor="start" x="412" y="-579.3" font-family="Times,serif" font-size="14.00" fill="#000000">skill_wish_list :character varying</text>
<text text-anchor="start" x="412" y="-564.3" font-family="Times,serif" font-size="14.00" fill="#000000">id :integer</text>
</g>
<!-- Meeting&#45;&gt;Profile -->
<g id="edge1" class="edge">
<title>Meeting&#45;&gt;Profile</title>
<path fill="none" stroke="#e9436a" d="M528,-930.2634C528,-924.6459 528,-918.9386 528,-913.1751"/>
<polygon fill="#e9436a" stroke="#e9436a" points="528.0001,-930.3059 523.5,-940.3059 528,-935.3059 528,-940.3059 528,-940.3059 528,-940.3059 528,-935.3059 532.5,-940.3059 528.0001,-930.3059 528.0001,-930.3059"/>
<polygon fill="#e9436a" stroke="#e9436a" points="528.0001,-912.7472 532.5,-902.7472 528,-907.7472 528,-902.7472 528,-902.7472 528,-902.7472 528,-907.7472 523.5,-902.7473 528.0001,-912.7472 528.0001,-912.7472"/>
</g>
<!-- Opening -->
<g id="node4" class="node">
<title>Opening</title>
<path fill="none" stroke="#000000" d="M412,-.5C412,-.5 646,-.5 646,-.5 652,-.5 658,-6.5 658,-12.5 658,-12.5 658,-229.5 658,-229.5 658,-235.5 652,-241.5 646,-241.5 646,-241.5 412,-241.5 412,-241.5 406,-241.5 400,-235.5 400,-229.5 400,-229.5 400,-12.5 400,-12.5 400,-6.5 406,-.5 412,-.5"/>
<text text-anchor="middle" x="529" y="-226.3" font-family="Times,serif" font-size="14.00" fill="#000000">Opening</text>
<polyline fill="none" stroke="#000000" points="400,-218.5 658,-218.5 "/>
<text text-anchor="start" x="408" y="-203.3" font-family="Times,serif" font-size="14.00" fill="#000000">updated_at :timestamp without time zone</text>
<text text-anchor="start" x="408" y="-188.3" font-family="Times,serif" font-size="14.00" fill="#000000">title :character varying</text>
<text text-anchor="start" x="408" y="-173.3" font-family="Times,serif" font-size="14.00" fill="#000000">deadline :timestamp without time zone</text>
<text text-anchor="start" x="408" y="-158.3" font-family="Times,serif" font-size="14.00" fill="#000000">publish_date :timestamp without time zone</text>
<text text-anchor="start" x="408" y="-143.3" font-family="Times,serif" font-size="14.00" fill="#000000">description :text</text>
<text text-anchor="start" x="408" y="-128.3" font-family="Times,serif" font-size="14.00" fill="#000000">skills :character varying</text>
<text text-anchor="start" x="408" y="-113.3" font-family="Times,serif" font-size="14.00" fill="#000000">tags :character varying</text>
<text text-anchor="start" x="408" y="-98.3" font-family="Times,serif" font-size="14.00" fill="#000000">project_id :integer</text>
<text text-anchor="start" x="408" y="-83.3" font-family="Times,serif" font-size="14.00" fill="#000000">experience :text</text>
<text text-anchor="start" x="408" y="-68.3" font-family="Times,serif" font-size="14.00" fill="#000000">contact :character varying</text>
<text text-anchor="start" x="408" y="-53.3" font-family="Times,serif" font-size="14.00" fill="#000000">status :integer</text>
<text text-anchor="start" x="408" y="-38.3" font-family="Times,serif" font-size="14.00" fill="#000000">flags :integer</text>
<text text-anchor="start" x="408" y="-23.3" font-family="Times,serif" font-size="14.00" fill="#000000">created_at :timestamp without time zone</text>
<text text-anchor="start" x="408" y="-8.3" font-family="Times,serif" font-size="14.00" fill="#000000">id :integer</text>
</g>
<!-- Project -->
<g id="node6" class="node">
<title>Project</title>
<path fill="none" stroke="#000000" d="M417,-293.5C417,-293.5 641,-293.5 641,-293.5 647,-293.5 653,-299.5 653,-305.5 653,-305.5 653,-492.5 653,-492.5 653,-498.5 647,-504.5 641,-504.5 641,-504.5 417,-504.5 417,-504.5 411,-504.5 405,-498.5 405,-492.5 405,-492.5 405,-305.5 405,-305.5 405,-299.5 411,-293.5 417,-293.5"/>
<text text-anchor="middle" x="529" y="-489.3" font-family="Times,serif" font-size="14.00" fill="#000000">Project</text>
<polyline fill="none" stroke="#000000" points="405,-481.5 653,-481.5 "/>
<text text-anchor="start" x="413" y="-466.3" font-family="Times,serif" font-size="14.00" fill="#000000">objective :text</text>
<text text-anchor="start" x="413" y="-451.3" font-family="Times,serif" font-size="14.00" fill="#000000">name :character varying</text>
<text text-anchor="start" x="413" y="-436.3" font-family="Times,serif" font-size="14.00" fill="#000000">description :text</text>
<text text-anchor="start" x="413" y="-421.3" font-family="Times,serif" font-size="14.00" fill="#000000">tags :character varying</text>
<text text-anchor="start" x="413" y="-406.3" font-family="Times,serif" font-size="14.00" fill="#000000">status :integer</text>
<text text-anchor="start" x="413" y="-391.3" font-family="Times,serif" font-size="14.00" fill="#000000">flags :integer</text>
<text text-anchor="start" x="413" y="-376.3" font-family="Times,serif" font-size="14.00" fill="#000000">created_at :timestamp without time zone</text>
<text text-anchor="start" x="413" y="-361.3" font-family="Times,serif" font-size="14.00" fill="#000000">updated_at :timestamp without time zone</text>
<text text-anchor="start" x="413" y="-346.3" font-family="Times,serif" font-size="14.00" fill="#000000">urls :jsonb</text>
<text text-anchor="start" x="413" y="-331.3" font-family="Times,serif" font-size="14.00" fill="#000000">owner_id :integer</text>
<text text-anchor="start" x="413" y="-316.3" font-family="Times,serif" font-size="14.00" fill="#000000">beneficiary :character varying</text>
<text text-anchor="start" x="413" y="-301.3" font-family="Times,serif" font-size="14.00" fill="#000000">id :integer</text>
</g>
<!-- Profile&#45;&gt;Project -->
<g id="edge3" class="edge">
<title>Profile&#45;&gt;Project</title>
<path fill="none" stroke="#2c67bf" d="M525.8078,-546.0094C525.8461,-538.2356 525.9088,-530.5404 526,-523 526.033,-520.2681 526.0702,-517.5023 526.1109,-514.7129"/>
<polygon fill="#2c67bf" stroke="#2c67bf" points="525.807,-546.2679 521.2712,-556.2517 525.7891,-551.2678 525.7712,-556.2678 525.7712,-556.2678 525.7712,-556.2678 525.7891,-551.2678 530.2712,-556.2839 525.807,-546.2679 525.807,-546.2679"/>
<polygon fill="#2c67bf" stroke="#2c67bf" points="526.1138,-514.5259 530.7728,-504.599 526.1936,-509.5266 526.2733,-504.5272 526.2733,-504.5272 526.2733,-504.5272 526.1936,-509.5266 521.7739,-504.4554 526.1138,-514.5259 526.1138,-514.5259"/>
</g>
<!-- Profile&#45;&gt;Project -->
<g id="edge4" class="edge">
<title>Profile&#45;&gt;Project</title>
<path fill="none" stroke="#598ed5" d="M528.5496,-547.8528C528.5833,-536.7288 528.6166,-525.705 528.6491,-514.9855"/>
<ellipse fill="none" stroke="#598ed5" cx="528.537" cy="-552.0228" rx="4" ry="4"/>
<polygon fill="#598ed5" stroke="#598ed5" points="528.6495,-514.8079 533.1798,-504.8216 528.6647,-509.8079 528.6799,-504.808 528.6799,-504.808 528.6799,-504.808 528.6647,-509.8079 524.1799,-504.7943 528.6495,-514.8079 528.6495,-514.8079"/>
<text text-anchor="middle" x="565.5" y="-526.8" font-family="Times,serif" font-size="14.00" fill="#000000">lead_projects</text>
</g>
<!-- ProjectMember -->
<g id="node7" class="node">
<title>ProjectMember</title>
<path fill="none" stroke="#000000" d="M688,-45.5C688,-45.5 912,-45.5 912,-45.5 918,-45.5 924,-51.5 924,-57.5 924,-57.5 924,-184.5 924,-184.5 924,-190.5 918,-196.5 912,-196.5 912,-196.5 688,-196.5 688,-196.5 682,-196.5 676,-190.5 676,-184.5 676,-184.5 676,-57.5 676,-57.5 676,-51.5 682,-45.5 688,-45.5"/>
<text text-anchor="middle" x="800" y="-181.3" font-family="Times,serif" font-size="14.00" fill="#000000">ProjectMember</text>
<polyline fill="none" stroke="#000000" points="676,-173.5 924,-173.5 "/>
<text text-anchor="start" x="684" y="-158.3" font-family="Times,serif" font-size="14.00" fill="#000000">updated_at :timestamp without time zone</text>
<text text-anchor="start" x="684" y="-143.3" font-family="Times,serif" font-size="14.00" fill="#000000">role :character varying</text>
<text text-anchor="start" x="684" y="-128.3" font-family="Times,serif" font-size="14.00" fill="#000000">project_id :integer</text>
<text text-anchor="start" x="684" y="-113.3" font-family="Times,serif" font-size="14.00" fill="#000000">profile_id :integer</text>
<text text-anchor="start" x="684" y="-98.3" font-family="Times,serif" font-size="14.00" fill="#000000">status :integer</text>
<text text-anchor="start" x="684" y="-83.3" font-family="Times,serif" font-size="14.00" fill="#000000">flags :integer</text>
<text text-anchor="start" x="684" y="-68.3" font-family="Times,serif" font-size="14.00" fill="#000000">created_at :timestamp without time zone</text>
<text text-anchor="start" x="684" y="-53.3" font-family="Times,serif" font-size="14.00" fill="#000000">id :integer</text>
</g>
<!-- Profile&#45;&gt;ProjectMember -->
<g id="edge2" class="edge">
<title>Profile&#45;&gt;ProjectMember</title>
<path fill="none" stroke="#ae4582" d="M639.6918,-549.1144C647.5822,-534.3705 655.1236,-519.5473 662,-505 708.9599,-405.6542 749.6772,-285.718 774.476,-206.6175"/>
<ellipse fill="none" stroke="#ae4582" cx="637.6907" cy="-552.8238" rx="4" ry="4"/>
<polygon fill="#ae4582" stroke="#ae4582" points="774.5926,-206.2436 781.8658,-198.0369 776.0812,-201.4703 777.5698,-196.6971 777.5698,-196.6971 777.5698,-196.6971 776.0812,-201.4703 773.2739,-195.3573 774.5926,-206.2436 774.5926,-206.2436"/>
<text text-anchor="middle" x="782.5" y="-395.3" font-family="Times,serif" font-size="14.00" fill="#000000">memberships</text>
</g>
<!-- StatusReport -->
<g id="node8" class="node">
<title>StatusReport</title>
<path fill="none" stroke="#000000" d="M142.5,-15.5C142.5,-15.5 369.5,-15.5 369.5,-15.5 375.5,-15.5 381.5,-21.5 381.5,-27.5 381.5,-27.5 381.5,-214.5 381.5,-214.5 381.5,-220.5 375.5,-226.5 369.5,-226.5 369.5,-226.5 142.5,-226.5 142.5,-226.5 136.5,-226.5 130.5,-220.5 130.5,-214.5 130.5,-214.5 130.5,-27.5 130.5,-27.5 130.5,-21.5 136.5,-15.5 142.5,-15.5"/>
<text text-anchor="middle" x="256" y="-211.3" font-family="Times,serif" font-size="14.00" fill="#000000">StatusReport</text>
<polyline fill="none" stroke="#000000" points="130.5,-203.5 381.5,-203.5 "/>
<text text-anchor="start" x="138.5" y="-188.3" font-family="Times,serif" font-size="14.00" fill="#000000">author_id :integer</text>
<text text-anchor="start" x="138.5" y="-173.3" font-family="Times,serif" font-size="14.00" fill="#000000">project_id :integer</text>
<text text-anchor="start" x="138.5" y="-158.3" font-family="Times,serif" font-size="14.00" fill="#000000">profile_id :integer</text>
<text text-anchor="start" x="138.5" y="-143.3" font-family="Times,serif" font-size="14.00" fill="#000000">report_date :timestamp without time zone</text>
<text text-anchor="start" x="138.5" y="-128.3" font-family="Times,serif" font-size="14.00" fill="#000000">summary :character varying</text>
<text text-anchor="start" x="138.5" y="-113.3" font-family="Times,serif" font-size="14.00" fill="#000000">details :text</text>
<text text-anchor="start" x="138.5" y="-98.3" font-family="Times,serif" font-size="14.00" fill="#000000">tags :character varying</text>
<text text-anchor="start" x="138.5" y="-83.3" font-family="Times,serif" font-size="14.00" fill="#000000">status :integer</text>
<text text-anchor="start" x="138.5" y="-68.3" font-family="Times,serif" font-size="14.00" fill="#000000">flags :integer</text>
<text text-anchor="start" x="138.5" y="-53.3" font-family="Times,serif" font-size="14.00" fill="#000000">created_at :timestamp without time zone</text>
<text text-anchor="start" x="138.5" y="-38.3" font-family="Times,serif" font-size="14.00" fill="#000000">updated_at :timestamp without time zone</text>
<text text-anchor="start" x="138.5" y="-23.3" font-family="Times,serif" font-size="14.00" fill="#000000">id :integer</text>
</g>
<!-- Profile&#45;&gt;StatusReport -->
<g id="edge5" class="edge">
<title>Profile&#45;&gt;StatusReport</title>
<path fill="none" stroke="#5bd01f" d="M418.112,-549.0032C410.3084,-534.2845 402.8352,-519.4974 396,-505 354.647,-417.2902 317.5499,-313.7992 291.9486,-236.3685"/>
<ellipse fill="none" stroke="#5bd01f" cx="420.0833" cy="-552.6935" rx="4" ry="4"/>
<polygon fill="#5bd01f" stroke="#5bd01f" points="291.8533,-236.0786 293.0019,-225.173 290.2904,-231.3291 288.7274,-226.5797 288.7274,-226.5797 288.7274,-226.5797 290.2904,-231.3291 284.4529,-227.9863 291.8533,-236.0786 291.8533,-236.0786"/>
</g>
<!-- Project&#45;&gt;Opening -->
<g id="edge8" class="edge">
<title>Project&#45;&gt;Opening</title>
<path fill="none" stroke="#b1617b" d="M529,-284.8249C529,-273.9959 529,-262.9592 529,-251.9892"/>
<ellipse fill="none" stroke="#b1617b" cx="529" cy="-289.1071" rx="4" ry="4"/>
<polygon fill="#b1617b" stroke="#b1617b" points="529.0001,-251.9414 533.5,-241.9414 529,-246.9414 529,-241.9414 529,-241.9414 529,-241.9414 529,-246.9414 524.5,-241.9415 529.0001,-251.9414 529.0001,-251.9414"/>
</g>
<!-- Project&#45;&gt;ProjectMember -->
<g id="edge6" class="edge">
<title>Project&#45;&gt;ProjectMember</title>
<path fill="none" stroke="#4e4db4" d="M638.115,-287.0666C665.141,-259.3424 693.6238,-230.1239 719.0352,-204.0561"/>
<ellipse fill="none" stroke="#4e4db4" cx="635.0187" cy="-290.2428" rx="4" ry="4"/>
<polygon fill="#4e4db4" stroke="#4e4db4" points="719.1369,-203.9518 729.3396,-199.9323 722.6271,-200.3714 726.1173,-196.7911 726.1173,-196.7911 726.1173,-196.7911 722.6271,-200.3714 722.895,-193.6499 719.1369,-203.9518 719.1369,-203.9518"/>
<text text-anchor="middle" x="690" y="-263.8" font-family="Times,serif" font-size="14.00" fill="#000000">members</text>
</g>
<!-- Project&#45;&gt;StatusReport -->
<g id="edge7" class="edge">
<title>Project&#45;&gt;StatusReport</title>
<path fill="none" stroke="#addef1" d="M419.2187,-287.2081C402.0311,-269.7057 384.2553,-251.6043 367.0397,-234.0734"/>
<ellipse fill="none" stroke="#addef1" cx="422.209" cy="-290.2531" rx="4" ry="4"/>
<polygon fill="#addef1" stroke="#addef1" points="366.7059,-233.7335 362.91,-223.4455 363.2026,-230.166 359.6993,-226.5985 359.6993,-226.5985 359.6993,-226.5985 363.2026,-230.166 356.4885,-229.7515 366.7059,-233.7335 366.7059,-233.7335"/>
</g>
<!-- Template -->
<g id="node9" class="node">
<title>Template</title>
<path fill="none" stroke="#000000" d="M682,-955.5C682,-955.5 906,-955.5 906,-955.5 912,-955.5 918,-961.5 918,-967.5 918,-967.5 918,-1109.5 918,-1109.5 918,-1115.5 912,-1121.5 906,-1121.5 906,-1121.5 682,-1121.5 682,-1121.5 676,-1121.5 670,-1115.5 670,-1109.5 670,-1109.5 670,-967.5 670,-967.5 670,-961.5 676,-955.5 682,-955.5"/>
<text text-anchor="middle" x="794" y="-1106.3" font-family="Times,serif" font-size="14.00" fill="#000000">Template</text>
<polyline fill="none" stroke="#000000" points="670,-1098.5 918,-1098.5 "/>
<text text-anchor="start" x="678" y="-1083.3" font-family="Times,serif" font-size="14.00" fill="#000000">updated_at :timestamp without time zone</text>
<text text-anchor="start" x="678" y="-1068.3" font-family="Times,serif" font-size="14.00" fill="#000000">name :character varying</text>
<text text-anchor="start" x="678" y="-1053.3" font-family="Times,serif" font-size="14.00" fill="#000000">subject :character varying</text>
<text text-anchor="start" x="678" y="-1038.3" font-family="Times,serif" font-size="14.00" fill="#000000">body :text</text>
<text text-anchor="start" x="678" y="-1023.3" font-family="Times,serif" font-size="14.00" fill="#000000">tags :character varying</text>
<text text-anchor="start" x="678" y="-1008.3" font-family="Times,serif" font-size="14.00" fill="#000000">status :integer</text>
<text text-anchor="start" x="678" y="-993.3" font-family="Times,serif" font-size="14.00" fill="#000000">flags :integer</text>
<text text-anchor="start" x="678" y="-978.3" font-family="Times,serif" font-size="14.00" fill="#000000">created_at :timestamp without time zone</text>
<text text-anchor="start" x="678" y="-963.3" font-family="Times,serif" font-size="14.00" fill="#000000">id :integer</text>
</g>
<!-- User -->
<g id="node10" class="node">
<title>User</title>
<path fill="none" stroke="#000000" d="M948,-970.5C948,-970.5 1172,-970.5 1172,-970.5 1178,-970.5 1184,-976.5 1184,-982.5 1184,-982.5 1184,-1094.5 1184,-1094.5 1184,-1100.5 1178,-1106.5 1172,-1106.5 1172,-1106.5 948,-1106.5 948,-1106.5 942,-1106.5 936,-1100.5 936,-1094.5 936,-1094.5 936,-982.5 936,-982.5 936,-976.5 942,-970.5 948,-970.5"/>
<text text-anchor="middle" x="1060" y="-1091.3" font-family="Times,serif" font-size="14.00" fill="#000000">User</text>
<polyline fill="none" stroke="#000000" points="936,-1083.5 1184,-1083.5 "/>
<text text-anchor="start" x="944" y="-1068.3" font-family="Times,serif" font-size="14.00" fill="#000000">status :integer</text>
<text text-anchor="start" x="944" y="-1053.3" font-family="Times,serif" font-size="14.00" fill="#000000">email :character varying</text>
<text text-anchor="start" x="944" y="-1038.3" font-family="Times,serif" font-size="14.00" fill="#000000">password_digest :bytea</text>
<text text-anchor="start" x="944" y="-1023.3" font-family="Times,serif" font-size="14.00" fill="#000000">id :integer</text>
<text text-anchor="start" x="944" y="-1008.3" font-family="Times,serif" font-size="14.00" fill="#000000">flags :integer</text>
<text text-anchor="start" x="944" y="-993.3" font-family="Times,serif" font-size="14.00" fill="#000000">created_at :timestamp without time zone</text>
<text text-anchor="start" x="944" y="-978.3" font-family="Times,serif" font-size="14.00" fill="#000000">updated_at :timestamp without time zone</text>
</g>
<!-- ValidationToken -->
<g id="node11" class="node">
<title>ValidationToken</title>
<path fill="none" stroke="#000000" d="M1214,-970.5C1214,-970.5 1438,-970.5 1438,-970.5 1444,-970.5 1450,-976.5 1450,-982.5 1450,-982.5 1450,-1094.5 1450,-1094.5 1450,-1100.5 1444,-1106.5 1438,-1106.5 1438,-1106.5 1214,-1106.5 1214,-1106.5 1208,-1106.5 1202,-1100.5 1202,-1094.5 1202,-1094.5 1202,-982.5 1202,-982.5 1202,-976.5 1208,-970.5 1214,-970.5"/>
<text text-anchor="middle" x="1326" y="-1091.3" font-family="Times,serif" font-size="14.00" fill="#000000">ValidationToken</text>
<polyline fill="none" stroke="#000000" points="1202,-1083.5 1450,-1083.5 "/>
<text text-anchor="start" x="1210" y="-1068.3" font-family="Times,serif" font-size="14.00" fill="#000000">category :integer</text>
<text text-anchor="start" x="1210" y="-1053.3" font-family="Times,serif" font-size="14.00" fill="#000000">token :bytea</text>
<text text-anchor="start" x="1210" y="-1038.3" font-family="Times,serif" font-size="14.00" fill="#000000">user_id :integer</text>
<text text-anchor="start" x="1210" y="-1023.3" font-family="Times,serif" font-size="14.00" fill="#000000">id :integer</text>
<text text-anchor="start" x="1210" y="-1008.3" font-family="Times,serif" font-size="14.00" fill="#000000">valid_until :timestamp without time zone</text>
<text text-anchor="start" x="1210" y="-993.3" font-family="Times,serif" font-size="14.00" fill="#000000">created_at :timestamp without time zone</text>
<text text-anchor="start" x="1210" y="-978.3" font-family="Times,serif" font-size="14.00" fill="#000000">updated_at :timestamp without time zone</text>
</g>
</g>
</svg>
